<svg xmlns="http://www.w3.org/2000/svg" viewBox="0 0 1928.06 1085.33"><defs><style>.cls-1{isolation:isolate;}.cls-2{fill:#1c2630;}.cls-3{fill:#f26419;}.cls-4,.cls-7{fill:#fff;}.cls-5{fill:#efb22d;}.cls-6{fill:aqua;}.cls-7{mix-blend-mode:hard-light;}</style></defs><title>background</title><g class="cls-1"><g id="Layer_2" data-name="Layer 2"><g id="Layer_3" data-name="Layer 3"><rect class="cls-2" width="1928.06" height="1085.33"/><circle class="cls-3" cx="218.99" cy="125.29" r="12.41"/><circle class="cls-4" cx="656.75" cy="165.44" r="2.66"/><circle class="cls-4" cx="412.7" cy="239.26" r="4.65"/><circle class="cls-4" cx="319.6" cy="263.2" r="9.97"/><circle class="cls-4" cx="570.63" cy="474.33" r="8.31"/><circle class="cls-4" cx="355.73" cy="388.87" r="3.55"/><circle class="cls-4" cx="383.15" cy="316.84" r="2.18"/><circle class="cls-4" cx="326.08" cy="310.11" r="0.7"/><circle class="cls-4" cx="294.26" cy="302.77" r="3.85"/><circle class="cls-4" cx="755.87" cy="32.21" r="13.39"/><circle class="cls-4" cx="820.83" cy="4.15" r="1.82"/><circle class="cls-4" cx="699.15" cy="8.39" r="2.42"/><circle class="cls-4" cx="827.59" cy="90.82" r="4.94"/><circle class="cls-4" cx="733.05" cy="54.8" r="2.42"/><circle class="cls-5" cx="699.86" cy="75.28" r="7.16"/><circle class="cls-4" cx="718.32" cy="260.42" r="11.1"/><circle class="cls-4" cx="615.7" cy="238.38" r="3.78"/><circle class="cls-3" cx="524.95" cy="296.32" r="4.66"/><circle class="cls-4" cx="604.18" cy="401.85" r="3.13"/><circle class="cls-4" cx="854.17" cy="755.28" r="4.66"/><circle class="cls-3" cx="573.57" cy="696" r="4.66"/><circle class="cls-4" cx="279.98" cy="525.87" r="4.66"/><circle class="cls-5" cx="124.9" cy="672.84" r="4.66"/><circle class="cls-4" cx="113.39" cy="771.82" r="4.66"/><circle class="cls-4" cx="393.64" cy="630.46" r="4.66"/><circle class="cls-4" cx="7.37" cy="177.73" r="4.66"/><circle class="cls-4" cx="440.9" cy="440.75" r="4.66"/><circle class="cls-4" cx="840.78" cy="556.06" r="13.39"/><circle class="cls-5" cx="705.72" cy="774.84" r="13.39"/><circle class="cls-4" cx="165.37" cy="332.63" r="13.39"/><circle class="cls-4" cx="457.61" cy="143.71" r="2.18"/><circle class="cls-4" cx="516.26" cy="188.4" r="2.18"/><circle class="cls-4" cx="406.07" cy="897.3" r="13.39"/><circle class="cls-3" cx="48.88" cy="1032.49" r="13.39"/><circle class="cls-4" cx="1035.03" cy="1026.05" r="13.39"/><circle class="cls-4" cx="917.58" cy="264.02" r="13.39"/><circle class="cls-6" cx="1000.82" cy="89.27" r="13.39"/><circle class="cls-4" cx="982.01" cy="460.79" r="3.13"/><circle class="cls-4" cx="820.79" cy="361.77" r="3.13"/><circle class="cls-6" cx="661.54" cy="985.7" r="3.13"/><ellipse class="cls-4" cx="1830.43" cy="424.07" rx="20.29" ry="19.92"/><ellipse class="cls-7" cx="1830.16" cy="423.91" rx="20.29" ry="19.92" transform="translate(623.35 1863.64) rotate(-63.07)"/><path class="cls-4" d="M1824.85,443.49l-.12,0A19.84,19.84,0,0,1,1821,442a20.11,20.11,0,0,1-8.57-27.12,20.54,20.54,0,0,1,7.36-8.09h0c.22,5.67.78,12,1.7,18.63S1823.55,438.05,1824.85,443.49Z"/><path class="cls-4" d="M1824.85,443.49l.79.15c2.55,10.2,5.73,16.87,8.39,16.54,4-.5,5.28-16.62,2.87-36s-7.6-34.73-11.59-34.23c-2.48.31-3.91,6.62-4.07,16l-1.46.86c-.54-14.26,1.08-24.36,4.51-24.84,4.8-.67,11.32,17.71,14.57,41.06s2,42.81-2.81,43.47C1832.59,467,1828.23,457.54,1824.85,443.49Z"/><circle class="cls-6" cx="727.24" cy="605.02" r="12.41"/><circle class="cls-4" cx="879.64" cy="648.07" r="3.13"/><circle class="cls-4" cx="995.24" cy="732.83" r="3.13"/><circle class="cls-4" cx="892.3" cy="877.26" r="3.13"/><circle class="cls-4" cx="544.03" cy="883.61" r="3.13"/><circle class="cls-4" cx="1063.9" cy="559.83" r="8.31"/><circle class="cls-4" cx="1211.59" cy="345.92" r="11.1"/><circle class="cls-4" cx="1108.97" cy="323.88" r="3.78"/><circle class="cls-3" cx="1018.22" cy="381.82" r="4.66"/><circle class="cls-4" cx="1097.45" cy="487.35" r="3.13"/><circle class="cls-4" cx="1220.51" cy="690.52" r="12.41"/><circle class="cls-4" cx="1036.71" cy="650.91" r="3.13"/><circle class="cls-4" cx="1118.6" cy="749.95" r="8.31"/><circle class="cls-4" cx="1163.67" cy="514" r="3.78"/><circle class="cls-3" cx="1072.92" cy="571.94" r="4.66"/><circle class="cls-4" cx="1152.15" cy="677.47" r="3.13"/><circle class="cls-4" cx="1779.96" cy="157.82" r="2.66"/><circle class="cls-4" cx="1535.91" cy="231.63" r="4.65"/><circle class="cls-4" cx="1693.85" cy="466.71" r="8.31"/><circle class="cls-5" cx="1823.07" cy="67.66" r="7.16"/><circle class="cls-4" cx="1841.54" cy="252.8" r="11.1"/><circle class="cls-4" cx="1738.92" cy="230.76" r="3.78"/><circle class="cls-3" cx="1648.17" cy="288.69" r="4.66"/><circle class="cls-4" cx="1727.4" cy="394.23" r="3.13"/><circle class="cls-4" cx="1564.11" cy="433.13" r="4.66"/><circle class="cls-4" cx="1580.83" cy="136.09" r="2.18"/><circle class="cls-4" cx="1639.48" cy="180.78" r="2.18"/><circle class="cls-6" cx="1850.45" cy="597.4" r="12.41"/><circle class="cls-3" cx="1174.74" cy="63.86" r="12.41"/><circle class="cls-4" cx="1368.45" cy="177.83" r="4.65"/><circle class="cls-4" cx="1275.35" cy="201.77" r="9.97"/><circle class="cls-4" cx="1526.39" cy="412.9" r="8.31"/><circle class="cls-4" cx="1311.49" cy="327.44" r="3.55"/><circle class="cls-4" cx="1338.9" cy="255.41" r="2.18"/><circle class="cls-4" cx="1281.83" cy="248.68" r="0.7"/><circle class="cls-4" cx="1250.02" cy="241.33" r="3.85"/><circle class="cls-3" cx="1480.71" cy="234.89" r="4.66"/><circle class="cls-4" cx="1338.73" cy="490.44" r="4.66"/><circle class="cls-4" cx="1396.65" cy="379.32" r="4.66"/><circle class="cls-4" cx="1121.12" cy="271.2" r="13.39"/><circle class="cls-4" cx="1413.36" cy="82.28" r="2.18"/><circle class="cls-4" cx="1472.02" cy="126.97" r="2.18"/><circle class="cls-4" cx="1522.32" cy="796.34" r="8.31"/><circle class="cls-4" cx="1670.01" cy="582.43" r="11.1"/><circle class="cls-3" cx="1476.64" cy="618.33" r="4.66"/><circle class="cls-4" cx="1555.87" cy="723.86" r="3.13"/><circle class="cls-4" cx="1792.46" cy="878.07" r="13.39"/><circle class="cls-4" cx="1772.48" cy="683.77" r="3.13"/><circle class="cls-6" cx="1678.92" cy="927.03" r="12.41"/><circle class="cls-4" cx="1831.32" cy="970.08" r="3.13"/><circle class="cls-4" cx="1405.84" cy="936.1" r="4.66"/><circle class="cls-4" cx="1392.45" cy="736.88" r="13.39"/><circle class="cls-5" cx="1257.39" cy="955.66" r="13.39"/><circle class="cls-4" cx="1278.91" cy="785.84" r="12.41"/><circle class="cls-4" cx="1431.3" cy="828.89" r="3.13"/></g></g></g></svg>