<svg xmlns="http://www.w3.org/2000/svg" viewBox="0 0 229.21 229.21"><defs><style>.cls-1{isolation:isolate;}.cls-2{fill:#1c2630;}.cls-3{fill:#f26419;}.cls-4,.cls-7{fill:#fff;}.cls-5{fill:#efb22d;}.cls-6{fill:aqua;}.cls-7{mix-blend-mode:hard-light;}</style></defs><title>space</title><g class="cls-1"><g id="Layer_2" data-name="Layer 2"><g id="Layer_5" data-name="Layer 5"><rect class="cls-2" width="229.21" height="229.21"/><circle class="cls-3" cx="46.25" cy="26.46" r="2.62"/><circle class="cls-4" cx="138.7" cy="34.94" r="0.56"/><circle class="cls-4" cx="87.16" cy="50.53" r="0.98"/><circle class="cls-4" cx="67.5" cy="55.59" r="2.11"/><circle class="cls-4" cx="120.51" cy="100.18" r="1.76"/><circle class="cls-4" cx="75.13" cy="82.13" r="0.75"/><circle class="cls-4" cx="80.92" cy="66.91" r="0.46"/><circle class="cls-4" cx="68.87" cy="65.49" r="0.15"/><circle class="cls-4" cx="62.15" cy="63.94" r="0.81"/><circle class="cls-4" cx="159.63" cy="6.8" r="2.83"/><circle class="cls-4" cx="173.35" cy="0.88" r="0.38"/><circle class="cls-4" cx="147.66" cy="1.77" r="0.51"/><circle class="cls-4" cx="174.78" cy="19.18" r="1.04"/><circle class="cls-4" cx="154.82" cy="11.57" r="0.51"/><circle class="cls-5" cx="147.81" cy="15.9" r="1.51"/><circle class="cls-4" cx="151.7" cy="55" r="2.34"/><circle class="cls-4" cx="130.03" cy="50.34" r="0.8"/><circle class="cls-3" cx="110.87" cy="62.58" r="0.98"/><circle class="cls-4" cx="127.6" cy="84.87" r="0.66"/><circle class="cls-4" cx="180.39" cy="159.51" r="0.98"/><circle class="cls-3" cx="121.13" cy="146.99" r="0.98"/><circle class="cls-4" cx="59.13" cy="111.06" r="0.98"/><circle class="cls-5" cx="26.38" cy="142.1" r="0.98"/><circle class="cls-4" cx="23.95" cy="163" r="0.98"/><circle class="cls-4" cx="83.13" cy="133.15" r="0.98"/><circle class="cls-4" cx="1.56" cy="37.54" r="0.98"/><circle class="cls-4" cx="93.11" cy="93.08" r="0.98"/><circle class="cls-4" cx="177.57" cy="117.44" r="2.83"/><circle class="cls-5" cx="149.04" cy="163.64" r="2.83"/><circle class="cls-4" cx="34.92" cy="70.25" r="2.83"/><circle class="cls-4" cx="96.64" cy="30.35" r="0.46"/><circle class="cls-4" cx="109.03" cy="39.79" r="0.46"/><circle class="cls-4" cx="85.76" cy="189.5" r="2.83"/><circle class="cls-3" cx="10.32" cy="218.06" r="2.83"/><circle class="cls-4" cx="218.59" cy="216.69" r="2.83"/><circle class="cls-4" cx="193.79" cy="55.76" r="2.83"/><circle class="cls-6" cx="211.37" cy="18.85" r="2.83"/><circle class="cls-4" cx="207.39" cy="97.32" r="0.66"/><circle class="cls-4" cx="173.35" cy="76.4" r="0.66"/><circle class="cls-6" cx="139.71" cy="208.17" r="0.66"/><ellipse class="cls-4" cx="58.97" cy="151.49" rx="11.89" ry="11.67"/><ellipse class="cls-7" cx="58.97" cy="151.49" rx="11.89" ry="11.67"/><path class="cls-4" d="M70.6,153.91l0-.07a11.42,11.42,0,0,0,.24-2.35A11.78,11.78,0,0,0,59,139.82a12,12,0,0,0-6.18,1.7h0a106.08,106.08,0,0,1,9.28,5.83C65.22,149.56,68.11,151.79,70.6,153.91Z"/><path class="cls-4" d="M70.6,153.91c0,.09-.07.25-.13.45,4.66,4,7.29,7.47,6.42,8.77-1.32,2-10.09-1.65-19.58-8.06s-16.12-13.18-14.8-15.13c.82-1.21,4.5-.29,9.44,2.12l.83-.53c-7.3-4.07-13-5.9-14.16-4.24-1.63,2.33,6.24,10.61,17.57,18.5S78,168.18,79.64,165.85C80.81,164.18,77,159.4,70.6,153.91Z"/><path class="cls-4" d="M43.65,140.42c-1.12,1.61,5.07,7.86,13.83,14s16.77,9.74,17.9,8.13c.69-1-1.41-3.77-5.19-7.18l-.11.36c1.58,1.7,2.34,3,2,3.58-.88,1.26-7.06-1.52-13.79-6.21s-11.49-9.52-10.62-10.78c.37-.52,1.62-.35,3.45.35l.35-.23C47.3,140.33,44.3,139.48,43.65,140.42Z"/><ellipse class="cls-4" cx="180.45" cy="39.3" rx="4.29" ry="4.21"/><ellipse class="cls-7" cx="180.45" cy="39.3" rx="4.29" ry="4.21"/><path class="cls-4" d="M176.26,40.17v0a3.86,3.86,0,0,1-.09-.84,4.25,4.25,0,0,1,4.29-4.21,4.31,4.31,0,0,1,2.23.61h0c-1,.59-2.18,1.3-3.34,2.11A38.54,38.54,0,0,0,176.26,40.17Z"/><path class="cls-4" d="M176.26,40.17s0,.09,0,.16c-1.67,1.46-2.62,2.7-2.31,3.16.48.71,3.64-.59,7.06-2.9s5.81-4.75,5.34-5.46c-.3-.43-1.63-.1-3.41.77l-.3-.2c2.64-1.46,4.69-2.12,5.11-1.52.59.84-2.25,3.82-6.34,6.67s-7.87,4.47-8.45,3.63C172.58,43.87,173.93,42.15,176.26,40.17Z"/><path class="cls-4" d="M186,35.31c.4.58-1.83,2.83-5,5s-6.05,3.51-6.45,2.93c-.25-.36.5-1.36,1.87-2.59l0,.13c-.57.61-.84,1.09-.7,1.29.32.46,2.55-.55,5-2.24s4.14-3.43,3.82-3.88c-.13-.19-.58-.13-1.24.12l-.12-.08C184.66,35.27,185.74,35,186,35.31Z"/><circle class="cls-6" cx="153.59" cy="127.78" r="2.62"/><circle class="cls-4" cx="185.77" cy="136.87" r="0.66"/><circle class="cls-4" cx="210.19" cy="154.77" r="0.66"/><circle class="cls-4" cx="188.45" cy="185.27" r="0.66"/><circle class="cls-4" cx="114.89" cy="186.61" r="0.66"/></g></g></g></svg>