<svg xmlns="http://www.w3.org/2000/svg" viewBox="0 0 269.93 27.38"><defs><style>.cls-1{fill:#f26419;}.cls-2{fill:#efb22d;}</style></defs><title>title</title><g id="Layer_2" data-name="Layer 2"><g id="Layer_3" data-name="Layer 3"><path class="cls-1" d="M13.63.82A5.09,5.09,0,0,1,16.28,3.7a16.24,16.24,0,0,1,.83,5.85,16.21,16.21,0,0,1-.83,5.85,5.06,5.06,0,0,1-2.65,2.88,12.64,12.64,0,0,1-5.09.82,12.63,12.63,0,0,1-5.07-.82A5.1,5.1,0,0,1,.82,15.4,16.24,16.24,0,0,1,0,9.55,16.28,16.28,0,0,1,.82,3.7,5.13,5.13,0,0,1,3.47.82,12.81,12.81,0,0,1,8.54,0,12.82,12.82,0,0,1,13.63.82ZM7,4.72a2.62,2.62,0,0,0-.73,1.55,18.92,18.92,0,0,0-.21,3.28,19,19,0,0,0,.21,3.29A2.59,2.59,0,0,0,7,14.38a2.35,2.35,0,0,0,1.53.44,2.35,2.35,0,0,0,1.53-.44,2.59,2.59,0,0,0,.73-1.54A19,19,0,0,0,11,9.55a18.92,18.92,0,0,0-.21-3.28,2.62,2.62,0,0,0-.73-1.55,2.35,2.35,0,0,0-1.53-.44A2.35,2.35,0,0,0,7,4.72Z"/><path class="cls-1" d="M35.6,18.73h-6l-1.2-5.45a1.7,1.7,0,0,0-.49-1A1.79,1.79,0,0,0,26.79,12H25v6.7H19.34V.37C20.49.27,21.59.2,22.63.16s2.54,0,4.51,0a15.46,15.46,0,0,1,4.47.52,4.38,4.38,0,0,1,2.47,1.72,6,6,0,0,1,.8,3.34q0,4-3.73,4.37v.16a3.26,3.26,0,0,1,3,2.87ZM28.67,7.58a2.07,2.07,0,0,0,.41-1.51,2.08,2.08,0,0,0-.41-1.52A2.62,2.62,0,0,0,27,4.18H25V8h2A2.61,2.61,0,0,0,28.67,7.58Z"/><path class="cls-1" d="M43.07,18.73H37.35V.37h5.72Z"/><path class="cls-1" d="M49.07.48a2.06,2.06,0,0,1,.39,1.36V3.38a9.09,9.09,0,0,1-.38,2.83,8.38,8.38,0,0,1-1.17,2.28l-1.8-.59a13,13,0,0,0,.45-3.32c-.91,0-1.38-.52-1.41-1.55l.05-1.19A2.13,2.13,0,0,1,45.57.48,1.72,1.72,0,0,1,46.85.11h.93A1.76,1.76,0,0,1,49.07.48Z"/><path class="cls-1" d="M65.31.93,65,4.63c-2.13,0-4.29,0-6.47,0a4.42,4.42,0,0,0-1.35.13.54.54,0,0,0-.35.56.75.75,0,0,0,.33.62,6.06,6.06,0,0,0,1.27.63L61.72,7.9a7.74,7.74,0,0,1,3.2,2.26,5.52,5.52,0,0,1,.93,3.33,6.59,6.59,0,0,1-.7,3.31,4,4,0,0,1-2.31,1.76,14.8,14.8,0,0,1-4.5.54,28.5,28.5,0,0,1-7.1-.9l.35-4q5.27.13,6.67.14a4.89,4.89,0,0,0,1.45-.14.49.49,0,0,0,.36-.5.79.79,0,0,0-.25-.61,3.08,3.08,0,0,0-1-.51l-3.64-1.6A7.66,7.66,0,0,1,52,8.69a5.43,5.43,0,0,1-.93-3.29,6.08,6.08,0,0,1,.73-3.26A4,4,0,0,1,54.17.49,16,16,0,0,1,58.64,0,20.45,20.45,0,0,1,65.31.93Z"/><path class="cls-1" d="M88.89,8.17V18.73H84.63l-.51-1.89a6.12,6.12,0,0,1-2.06,1.6,6.64,6.64,0,0,1-3,.66,5.85,5.85,0,0,1-3.48-.94,5.53,5.53,0,0,1-2-3.05A19.5,19.5,0,0,1,73,9.55a15.37,15.37,0,0,1,.84-5.64,5.47,5.47,0,0,1,2.71-3A11.77,11.77,0,0,1,81.6,0a32.31,32.31,0,0,1,3.59.17,19.68,19.68,0,0,1,2.92.6l-.42,4.15h-.8c-2.23,0-4,0-5.27,0A2.86,2.86,0,0,0,80,5.25a2.24,2.24,0,0,0-.77,1.39A14.15,14.15,0,0,0,79,9.55a14.66,14.66,0,0,0,.21,2.87,2.25,2.25,0,0,0,.7,1.37,2.28,2.28,0,0,0,1.43.39,13,13,0,0,0,2-.16V8.17Z"/><path class="cls-1" d="M101.47,14.77h-5l-.93,4H89.63L94.39,1.86A2.05,2.05,0,0,1,95.11.79,1.92,1.92,0,0,1,96.33.37h5.25a1.9,1.9,0,0,1,1.22.42,2.05,2.05,0,0,1,.72,1.07l4.76,16.87H102.4Zm-.93-4-.91-3.94c-.16-.83-.26-1.53-.32-2.1H98.6c-.11.84-.22,1.54-.32,2.1l-.91,3.94Z"/><path class="cls-1" d="M115.14,13.2a.9.9,0,0,0,.31.69,1.16,1.16,0,0,0,.81.26h6.17l.27,4.31a37.74,37.74,0,0,1-3.86.31c-1.36,0-3.07.07-5.11.07a4.36,4.36,0,0,1-3.16-1.16,4,4,0,0,1-1.2-3V.37h5.77Z"/><path class="cls-1" d="M134.46,14.77h-5l-.93,4h-5.88l4.76-16.87A2.05,2.05,0,0,1,128.1.79a1.92,1.92,0,0,1,1.22-.42h5.25a1.92,1.92,0,0,1,1.22.42,2.05,2.05,0,0,1,.72,1.07l4.76,16.87h-5.88Zm-.93-4-.91-3.94c-.16-.83-.26-1.53-.32-2.1h-.71c-.11.84-.22,1.54-.32,2.1l-.91,3.94Z"/><path class="cls-1" d="M153.46,18.73,150.05,11l-3.43,7.72H140.9l4.55-9.36-4.18-9H147l3.09,7.27L153.11.37h5.69l-4.18,9,4.55,9.36Z"/><path class="cls-1" d="M170.64,13v5.72h-5.77V13.06L158.78.37h5.93L167,6.15a6.77,6.77,0,0,1,.4,1.51c.09.57.14.92.16,1.07h.35c0-.11.07-.46.16-1a7.34,7.34,0,0,1,.4-1.57L170.77.37h5.94Z"/><path class="cls-1" d="M195.8.82a5.11,5.11,0,0,1,2.64,2.88,16.24,16.24,0,0,1,.83,5.85,16.21,16.21,0,0,1-.83,5.85,5.08,5.08,0,0,1-2.64,2.88,12.72,12.72,0,0,1-5.1.82,12.63,12.63,0,0,1-5.07-.82A5.08,5.08,0,0,1,183,15.4a16.21,16.21,0,0,1-.83-5.85A16.24,16.24,0,0,1,183,3.7,5.11,5.11,0,0,1,185.63.82a16.18,16.18,0,0,1,10.17,0ZM193,20.54c1.33.28,3,.57,4.92.85l-1.41,4.66a27.82,27.82,0,0,1-8.56-3.89l1.22-2.74A26.46,26.46,0,0,0,193,20.54ZM189.17,4.72a2.68,2.68,0,0,0-.73,1.55,18.92,18.92,0,0,0-.21,3.28,19,19,0,0,0,.21,3.29,2.64,2.64,0,0,0,.73,1.54,2.88,2.88,0,0,0,3.06,0,2.59,2.59,0,0,0,.73-1.54,18.84,18.84,0,0,0,.22-3.29A18.71,18.71,0,0,0,193,6.27a2.62,2.62,0,0,0-.73-1.55,2.88,2.88,0,0,0-3.06,0Z"/><path class="cls-1" d="M217.62,11.15a12,12,0,0,1-.75,4.68,4.77,4.77,0,0,1-2.46,2.5,11.27,11.27,0,0,1-4.61.77,12.92,12.92,0,0,1-5-.77,5,5,0,0,1-2.65-2.5,11,11,0,0,1-.82-4.68V.37h5.77V11.15a10,10,0,0,0,.2,2.29,1.68,1.68,0,0,0,.71,1.07,2.76,2.76,0,0,0,1.46.31,2.72,2.72,0,0,0,1.45-.31,1.66,1.66,0,0,0,.69-1.07,9.48,9.48,0,0,0,.2-2.29V.37h5.77Z"/><path class="cls-1" d="M233.72,14.42l.27,4.07a35,35,0,0,1-4,.29c-1.5,0-3.35.06-5.54.06a4.3,4.3,0,0,1-3.1-1.16,4,4,0,0,1-1.22-3V4.44a4,4,0,0,1,1.22-3,4.29,4.29,0,0,1,3.1-1.15c2.19,0,4,0,5.54,0a35,35,0,0,1,4,.29l-.27,4.07H227a1.14,1.14,0,0,0-.8.27.91.91,0,0,0-.29.69V7.42h6.86v3.83H225.9v2.21a.88.88,0,0,0,.29.69,1.14,1.14,0,0,0,.8.27Z"/><path class="cls-1" d="M249.76.93l-.34,3.7c-2.13,0-4.29,0-6.47,0a4.42,4.42,0,0,0-1.35.13.54.54,0,0,0-.35.56.75.75,0,0,0,.33.62,5.81,5.81,0,0,0,1.27.63l3.32,1.38a7.63,7.63,0,0,1,3.19,2.26,5.52,5.52,0,0,1,.93,3.33,6.71,6.71,0,0,1-.69,3.31,4,4,0,0,1-2.31,1.76,14.8,14.8,0,0,1-4.5.54,28.5,28.5,0,0,1-7.1-.9l.35-4q5.27.13,6.67.14a4.89,4.89,0,0,0,1.45-.14.49.49,0,0,0,.36-.5.79.79,0,0,0-.25-.61,3.08,3.08,0,0,0-1-.51l-3.64-1.6a7.66,7.66,0,0,1-3.17-2.24,5.43,5.43,0,0,1-.93-3.29,6.08,6.08,0,0,1,.73-3.26A4,4,0,0,1,238.62.49,15.93,15.93,0,0,1,243.08,0,20.47,20.47,0,0,1,249.76.93Z"/><path class="cls-1" d="M267.27,4.68h-5.14V18.73h-5.77v-14h-5.13V.37h16Z"/><path class="cls-2" d="M16.29,2.15A5.09,5.09,0,0,1,18.94,5a16.24,16.24,0,0,1,.83,5.85,16.21,16.21,0,0,1-.83,5.85,5.06,5.06,0,0,1-2.65,2.88,12.64,12.64,0,0,1-5.09.82,12.63,12.63,0,0,1-5.07-.82,5.1,5.1,0,0,1-2.65-2.88,16.24,16.24,0,0,1-.82-5.85A16.28,16.28,0,0,1,3.48,5,5.13,5.13,0,0,1,6.13,2.15a12.81,12.81,0,0,1,5.07-.82A12.82,12.82,0,0,1,16.29,2.15ZM9.67,6.05A2.62,2.62,0,0,0,8.94,7.6a18.92,18.92,0,0,0-.21,3.28,19,19,0,0,0,.21,3.29,2.59,2.59,0,0,0,.73,1.54,2.35,2.35,0,0,0,1.53.44,2.35,2.35,0,0,0,1.53-.44,2.59,2.59,0,0,0,.73-1.54,19,19,0,0,0,.21-3.29,18.92,18.92,0,0,0-.21-3.28,2.62,2.62,0,0,0-.73-1.55,2.35,2.35,0,0,0-1.53-.44A2.35,2.35,0,0,0,9.67,6.05Z"/><path class="cls-2" d="M38.26,20.06h-6L31,14.61a1.7,1.7,0,0,0-.49-1,1.79,1.79,0,0,0-1.08-.25H27.67v6.7H22V1.7c1.15-.1,2.25-.17,3.29-.21s2.54-.05,4.51-.05A15.46,15.46,0,0,1,34.27,2a4.38,4.38,0,0,1,2.47,1.72A6,6,0,0,1,37.54,7q0,4-3.73,4.37v.16a3.26,3.26,0,0,1,3,2.87ZM31.33,8.91a2.07,2.07,0,0,0,.41-1.51,2.08,2.08,0,0,0-.41-1.52,2.62,2.62,0,0,0-1.67-.37h-2V9.29h2A2.61,2.61,0,0,0,31.33,8.91Z"/><path class="cls-2" d="M45.73,20.06H40V1.7h5.72Z"/><path class="cls-2" d="M51.73,1.81a2.06,2.06,0,0,1,.39,1.36V4.71a9.43,9.43,0,0,1-.37,2.83,8.72,8.72,0,0,1-1.18,2.28l-1.8-.59a13,13,0,0,0,.45-3.32c-.91,0-1.38-.52-1.41-1.55l0-1.19a2.13,2.13,0,0,1,.37-1.36,1.72,1.72,0,0,1,1.28-.37h.93A1.76,1.76,0,0,1,51.73,1.81Z"/><path class="cls-2" d="M68,2.26,67.63,6c-2.13,0-4.29,0-6.47,0A4.42,4.42,0,0,0,59.81,6a.54.54,0,0,0-.35.56.75.75,0,0,0,.33.62,6.06,6.06,0,0,0,1.27.63l3.32,1.38a7.74,7.74,0,0,1,3.2,2.26,5.52,5.52,0,0,1,.93,3.33,6.59,6.59,0,0,1-.7,3.31,4,4,0,0,1-2.31,1.76,14.8,14.8,0,0,1-4.5.54,28.5,28.5,0,0,1-7.1-.9l.35-4.05q5.27.13,6.67.14a4.89,4.89,0,0,0,1.45-.14.49.49,0,0,0,.36-.5.79.79,0,0,0-.25-.61,3.08,3.08,0,0,0-1-.51l-3.64-1.6A7.66,7.66,0,0,1,54.67,10a5.43,5.43,0,0,1-.93-3.29,6.08,6.08,0,0,1,.73-3.26,4,4,0,0,1,2.36-1.65,16,16,0,0,1,4.47-.49A20.45,20.45,0,0,1,68,2.26Z"/><path class="cls-2" d="M91.55,9.5V20.06H87.29l-.51-1.89a6.12,6.12,0,0,1-2.06,1.6,6.64,6.64,0,0,1-3,.66,5.87,5.87,0,0,1-3.48-.94,5.53,5.53,0,0,1-2-3,19.5,19.5,0,0,1-.64-5.56,15.37,15.37,0,0,1,.84-5.64,5.47,5.47,0,0,1,2.71-3,11.77,11.77,0,0,1,5.1-.92,32.31,32.31,0,0,1,3.59.17,19.68,19.68,0,0,1,2.92.6l-.42,4.15h-.8c-2.23,0-4,0-5.27,0a2.86,2.86,0,0,0-1.61.38A2.24,2.24,0,0,0,81.9,8a14.15,14.15,0,0,0-.22,2.91,14.66,14.66,0,0,0,.21,2.87,2.25,2.25,0,0,0,.7,1.37,2.28,2.28,0,0,0,1.43.39,13,13,0,0,0,2-.16V9.5Z"/><path class="cls-2" d="M104.13,16.1h-5l-.93,4H92.29L97.05,3.19a2.05,2.05,0,0,1,.72-1.07A1.92,1.92,0,0,1,99,1.7h5.25a1.9,1.9,0,0,1,1.22.42,2.05,2.05,0,0,1,.72,1.07l4.76,16.87h-5.88Zm-.93-4.05-.91-3.94c-.16-.83-.26-1.53-.32-2.1h-.71c-.11.84-.22,1.54-.32,2.1L100,12.05Z"/><path class="cls-2" d="M117.8,14.53a.9.9,0,0,0,.31.69,1.16,1.16,0,0,0,.81.26h6.17l.27,4.31a37.74,37.74,0,0,1-3.86.31c-1.36,0-3.07.07-5.11.07A4.36,4.36,0,0,1,113.23,19a4,4,0,0,1-1.2-3V1.7h5.77Z"/><path class="cls-2" d="M137.12,16.1h-5l-.93,4h-5.88L130,3.19a2.05,2.05,0,0,1,.72-1.07A1.92,1.92,0,0,1,132,1.7h5.25a1.92,1.92,0,0,1,1.22.42,2.05,2.05,0,0,1,.72,1.07l4.76,16.87h-5.88Zm-.93-4.05-.91-3.94c-.16-.83-.26-1.53-.32-2.1h-.71c-.11.84-.22,1.54-.32,2.1L133,12.05Z"/><path class="cls-2" d="M156.12,20.06l-3.41-7.72-3.43,7.72h-5.72l4.55-9.36-4.18-9h5.69L152.71,9l3.06-7.27h5.69l-4.17,9,4.54,9.36Z"/><path class="cls-2" d="M173.3,14.34v5.72h-5.77V14.39L161.44,1.7h5.93l2.31,5.78a6.77,6.77,0,0,1,.4,1.51c.09.57.14.93.16,1.07h.35c0-.11.07-.46.16-1a7.34,7.34,0,0,1,.4-1.57l2.28-5.75h5.94Z"/><path class="cls-2" d="M198.46,2.15A5.11,5.11,0,0,1,201.1,5a16.24,16.24,0,0,1,.83,5.85,16.21,16.21,0,0,1-.83,5.85,5.08,5.08,0,0,1-2.64,2.88,12.72,12.72,0,0,1-5.1.82,12.63,12.63,0,0,1-5.07-.82,5.08,5.08,0,0,1-2.64-2.88,16.21,16.21,0,0,1-.83-5.85A16.24,16.24,0,0,1,185.65,5a5.11,5.11,0,0,1,2.64-2.88,16.18,16.18,0,0,1,10.17,0Zm-2.84,19.72c1.33.28,3,.57,4.92.85l-1.41,4.66a27.82,27.82,0,0,1-8.56-3.89l1.22-2.74A26.46,26.46,0,0,0,195.62,21.87ZM191.83,6.05a2.68,2.68,0,0,0-.73,1.55,18.92,18.92,0,0,0-.21,3.28,19,19,0,0,0,.21,3.29,2.64,2.64,0,0,0,.73,1.54,2.88,2.88,0,0,0,3.06,0,2.59,2.59,0,0,0,.73-1.54,18.84,18.84,0,0,0,.22-3.29,18.71,18.71,0,0,0-.22-3.28,2.62,2.62,0,0,0-.73-1.55,2.88,2.88,0,0,0-3.06,0Z"/><path class="cls-2" d="M220.29,12.48a12,12,0,0,1-.76,4.68,4.77,4.77,0,0,1-2.46,2.5,11.27,11.27,0,0,1-4.61.77,12.92,12.92,0,0,1-5-.77,5,5,0,0,1-2.65-2.5,11,11,0,0,1-.82-4.68V1.7h5.77V12.48a10,10,0,0,0,.2,2.29,1.68,1.68,0,0,0,.71,1.07,2.76,2.76,0,0,0,1.46.31,2.72,2.72,0,0,0,1.45-.31,1.66,1.66,0,0,0,.69-1.07,9.48,9.48,0,0,0,.2-2.29V1.7h5.78Z"/><path class="cls-2" d="M236.38,15.75l.27,4.07a35,35,0,0,1-4,.29c-1.5,0-3.35.06-5.54.06A4.3,4.3,0,0,1,224,19a4,4,0,0,1-1.21-3V5.77a4,4,0,0,1,1.21-3,4.29,4.29,0,0,1,3.1-1.15c2.19,0,4,0,5.54,0a37.44,37.44,0,0,1,4,.29L236.38,6h-6.73a1.14,1.14,0,0,0-.8.27.91.91,0,0,0-.29.69V8.75h6.86v3.83h-6.86v2.21a.88.88,0,0,0,.29.69,1.14,1.14,0,0,0,.8.27Z"/><path class="cls-2" d="M252.42,2.26,252.08,6c-2.13,0-4.29,0-6.47,0a4.42,4.42,0,0,0-1.35.13.54.54,0,0,0-.35.56.75.75,0,0,0,.33.62,5.81,5.81,0,0,0,1.27.63l3.32,1.38A7.63,7.63,0,0,1,252,11.49a5.52,5.52,0,0,1,.94,3.33,6.7,6.7,0,0,1-.7,3.31A4,4,0,0,1,250,19.89a14.8,14.8,0,0,1-4.5.54,28.5,28.5,0,0,1-7.1-.9l.35-4.05q5.27.13,6.67.14a4.89,4.89,0,0,0,1.45-.14.49.49,0,0,0,.36-.5.79.79,0,0,0-.25-.61,3.08,3.08,0,0,0-1-.51l-3.64-1.6A7.66,7.66,0,0,1,239.12,10a5.43,5.43,0,0,1-.93-3.29,6.08,6.08,0,0,1,.73-3.26,4,4,0,0,1,2.36-1.65,16,16,0,0,1,4.47-.49A20.45,20.45,0,0,1,252.42,2.26Z"/><path class="cls-2" d="M269.93,6h-5.14V20.06H259V6h-5.13V1.7h16Z"/></g></g></svg>